<?xml version="1.0" encoding="UTF-8" standalone="no"?>
<!-- Art by Wing (me) -->
<svg xmlns="http://www.w3.org/2000/svg" xmlns:xlink="http://www.w3.org/1999/xlink" style="isolation:isolate" viewBox="0 0 3000 692" width="3000pt" height="692pt">
    <path id="ground" stroke="currentColor" fill="none" stroke-width="15" stroke-linecap="round" stroke-linejoin="round" d=" M 18.5 588.32 Q 476.418 426.598 738.646 426.598 C 1000.875 426.598 1835.439 674.081 2312.372 674.081 Q 2789.305 674.081 2981.5 566.267"/>
    
    <g id="telescope">
        <g id="base">
            <path stroke="currentColor" fill="none" stroke-width="15" stroke-linejoin="round" d=" M 752.317 237.313 L 778.068 294.438 C 782.168 303.533 777.8 313.441 768.322 316.551 L 560.282 384.807 C 550.803 387.916 539.779 383.058 535.68 373.963 L 533.451 369.02 C 529.351 359.925 532.963 348.365 541.51 343.221 L 729.401 230.154 C 737.949 225.011 748.217 228.218 752.317 237.313 Z "/>
            <line stroke="currentColor" x1="565.022" y1="334.961" x2="582.107" y2="372.861" stroke-width="15"/>
            <line stroke="currentColor" x1="706.061" y1="247.59" x2="740.973" y2="325.039" stroke-width="15"/>
        </g>
        <g id="tripod">
            <line stroke="currentColor" stroke-linecap="round" stroke-width="15" x1="661.106" y1="351.771" x2="600.856" y2="461.427"/>
            <line stroke="currentColor" stroke-linecap="round" stroke-width="15" x1="664.210" y1="355.240" x2="724.461" y2="464.896"/>
            <line stroke="currentColor" stroke-linecap="round" stroke-width="15" x1="661.106" y1="356.591" x2="661.106" y2="492.757"/>
        </g>
    </g>

    <g id="stars">
        <path stroke="currentColor" fill="none" stroke-width="10" d=" M 2288.564 567.799 L 2275.52 556.808 L 2259.062 561.289 C 2253.978 562.673 2251.462 559.834 2253.446 554.953 L 2259.869 539.152 L 2250.52 524.883 C 2247.634 520.478 2249.555 517.206 2254.811 517.585 L 2271.822 518.809 L 2282.507 505.511 C 2285.805 501.404 2289.507 502.221 2290.77 507.334 L 2294.866 523.894 L 2310.812 529.943 C 2315.74 531.811 2316.105 535.588 2311.633 538.37 L 2297.148 547.379 L 2296.324 564.415 C 2296.07 569.678 2292.592 571.194 2288.564 567.799 Z "/>
        <path stroke="currentColor" fill="none" stroke-width="10" d=" M 520.687 137.6 L 507.236 125.741 L 489.833 130.065 C 484.458 131.401 481.879 128.358 484.08 123.275 L 491.201 106.818 L 481.71 91.602 C 478.78 86.904 480.876 83.51 486.391 84.031 L 504.242 85.717 L 515.783 71.991 C 519.346 67.752 523.218 68.697 524.426 74.102 L 528.342 91.602 L 544.96 98.334 C 550.095 100.414 550.39 104.392 545.625 107.21 L 530.189 116.339 L 528.923 134.226 C 528.533 139.751 524.842 141.263 520.687 137.6 Z "/>
        <path stroke="currentColor" fill="none" stroke-width="10" d=" M 137.953 419.99 L 120.403 416.305 L 107.394 428.646 C 103.376 432.459 99.632 431.082 99.041 425.575 L 97.123 407.747 L 81.364 399.187 C 76.499 396.544 76.649 392.558 81.705 390.293 L 98.066 382.959 L 101.34 365.327 C 102.35 359.882 106.185 358.796 109.9 362.902 L 121.935 376.198 L 139.712 373.862 C 145.205 373.139 147.423 376.455 144.667 381.256 L 135.737 396.809 L 143.455 412.994 C 145.839 417.994 143.373 421.129 137.953 419.99 Z "/>
        <path stroke="currentColor" fill="none" stroke-width="10" d=" M 1313.961 367.715 L 1294.076 367.398 L 1282.511 383.575 C 1278.939 388.572 1274.573 387.862 1272.769 381.99 L 1266.926 362.983 L 1247.965 356.982 C 1242.111 355.129 1241.435 350.758 1246.462 347.226 L 1262.732 335.795 L 1262.584 315.907 C 1262.537 309.766 1266.483 307.776 1271.393 311.465 L 1287.297 323.406 L 1306.161 317.119 C 1311.989 315.175 1315.103 318.318 1313.113 324.126 L 1306.666 342.941 L 1318.477 358.939 C 1322.127 363.88 1320.102 367.813 1313.961 367.715 Z "/>
        <path stroke="currentColor" fill="none" stroke-width="10" d=" M 2308.966 266.516 L 2297.478 258.073 L 2284.001 262.723 C 2279.839 264.16 2277.583 261.932 2278.967 257.751 L 2283.446 244.218 L 2274.858 232.837 C 2272.207 229.323 2273.627 226.488 2278.032 226.512 L 2292.286 226.589 L 2300.459 214.906 C 2302.982 211.298 2306.114 211.774 2307.452 215.968 L 2311.786 229.551 L 2325.42 233.711 C 2329.633 234.996 2330.147 238.125 2326.572 240.693 L 2314.992 249.01 L 2315.25 263.263 C 2315.33 267.666 2312.514 269.124 2308.966 266.516 Z "/>
        <path stroke="currentColor" fill="none" stroke-width="10" d=" M 1699.884 239.437 L 1685.716 223.286 L 1664.374 225.76 C 1657.782 226.524 1655.184 222.514 1658.577 216.81 L 1669.558 198.346 L 1660.61 178.811 C 1657.848 172.781 1660.858 169.069 1667.332 170.532 L 1688.285 175.268 L 1704.101 160.725 C 1708.984 156.233 1713.44 157.949 1714.048 164.556 L 1716.021 185.951 L 1734.738 196.495 C 1740.521 199.752 1740.263 204.524 1734.169 207.143 L 1714.429 215.628 L 1710.187 236.688 C 1708.877 243.194 1704.26 244.426 1699.884 239.437 Z " />
        <path   fill="currentColor" d=" M 2752.901 167.274 L 2725.719 153.017 L 2698.537 167.274 C 2690.141 171.677 2684.618 167.664 2686.213 158.319 L 2691.371 128.063 L 2669.411 106.615 C 2662.632 99.994 2664.738 93.499 2674.121 92.127 L 2704.487 87.681 L 2718.105 60.171 C 2722.308 51.675 2729.13 51.675 2733.333 60.171 L 2746.95 87.681 L 2777.316 92.127 C 2786.699 93.499 2788.806 99.994 2782.026 106.615 L 2760.066 128.063 L 2765.225 158.319 C 2766.819 167.664 2761.296 171.677 2752.901 167.274 Z "/>
    </g>
</svg>